<mxfile host="65bd71144e">
    <diagram id="cqDpE4EeUtD5-2cmckVc" name="Page-1">
        <mxGraphModel dx="882" dy="904" grid="1" gridSize="10" guides="1" tooltips="1" connect="1" arrows="1" fold="1" page="1" pageScale="1" pageWidth="1100" pageHeight="850" math="0" shadow="0">
            <root>
                <mxCell id="0"/>
                <mxCell id="1" parent="0"/>
                <mxCell id="8" value="Node" style="rounded=0;whiteSpace=wrap;html=1;horizontal=1;verticalAlign=top;" parent="1" vertex="1">
                    <mxGeometry x="310" y="220" width="340" height="230" as="geometry"/>
                </mxCell>
                <mxCell id="2" value="ffmpeg-static?" style="rounded=0;whiteSpace=wrap;html=1;" parent="1" vertex="1">
                    <mxGeometry x="350" y="270" width="120" height="60" as="geometry"/>
                </mxCell>
                <mxCell id="6" value="RTSP stream source" style="rounded=0;whiteSpace=wrap;html=1;" parent="1" vertex="1">
                    <mxGeometry x="430" y="100" width="120" height="60" as="geometry"/>
                </mxCell>
                <mxCell id="7" value="express" style="rounded=0;whiteSpace=wrap;html=1;" parent="1" vertex="1">
                    <mxGeometry x="500" y="270" width="120" height="60" as="geometry"/>
                </mxCell>
                <mxCell id="9" value="Browser" style="rounded=0;whiteSpace=wrap;html=1;horizontal=1;verticalAlign=top;" parent="1" vertex="1">
                    <mxGeometry x="310" y="510" width="340" height="160" as="geometry"/>
                </mxCell>
                <mxCell id="10" value="StreamClient.vue" style="rounded=0;whiteSpace=wrap;html=1;" parent="1" vertex="1">
                    <mxGeometry x="420" y="560" width="120" height="60" as="geometry"/>
                </mxCell>
                <mxCell id="12" value="ws?" style="rounded=0;whiteSpace=wrap;html=1;" parent="1" vertex="1">
                    <mxGeometry x="720" y="425" width="120" height="60" as="geometry"/>
                </mxCell>
                <mxCell id="13" value="node-rtsp-stream" style="rounded=0;whiteSpace=wrap;html=1;" parent="1" vertex="1">
                    <mxGeometry x="420" y="360" width="120" height="60" as="geometry"/>
                </mxCell>
                <mxCell id="14" value="Node" style="rounded=0;whiteSpace=wrap;html=1;horizontal=1;verticalAlign=top;" vertex="1" parent="1">
                    <mxGeometry x="270" y="1070" width="230" height="250" as="geometry"/>
                </mxCell>
                <mxCell id="15" value="ffmpeg-static" style="rounded=0;whiteSpace=wrap;html=1;" vertex="1" parent="1">
                    <mxGeometry x="320" y="1130" width="120" height="60" as="geometry"/>
                </mxCell>
                <mxCell id="16" value="RTSP stream source" style="rounded=0;whiteSpace=wrap;html=1;" vertex="1" parent="1">
                    <mxGeometry x="390" y="950" width="120" height="60" as="geometry"/>
                </mxCell>
                <mxCell id="18" value="Browser" style="rounded=0;whiteSpace=wrap;html=1;horizontal=1;verticalAlign=top;" vertex="1" parent="1">
                    <mxGeometry x="270" y="1360" width="220" height="280" as="geometry"/>
                </mxCell>
                <mxCell id="19" value="StreamClient.vue" style="rounded=0;whiteSpace=wrap;html=1;" vertex="1" parent="1">
                    <mxGeometry x="320" y="1410" width="120" height="60" as="geometry"/>
                </mxCell>
                <mxCell id="20" value="HLS" style="rounded=0;whiteSpace=wrap;html=1;" vertex="1" parent="1">
                    <mxGeometry x="320" y="1215" width="120" height="60" as="geometry"/>
                </mxCell>
                <mxCell id="22" value="video.js" style="rounded=0;whiteSpace=wrap;html=1;" vertex="1" parent="1">
                    <mxGeometry x="320" y="1510" width="120" height="60" as="geometry"/>
                </mxCell>
                <mxCell id="23" value="ws" style="rounded=0;whiteSpace=wrap;html=1;" vertex="1" parent="1">
                    <mxGeometry x="650" y="1310" width="120" height="60" as="geometry"/>
                </mxCell>
            </root>
        </mxGraphModel>
    </diagram>
</mxfile>